{"title":"The.Hobbit.2012.DVDSCR.XVID-Happyviking.mp4","uid":7979128,"size":2201682046,"categoryP":"video","categoryS":"movies","magnet":"?xt=urn:btih:1362b880543fd912f8fad4d5a8d9ef97bec1117e&amp;dn=The.Hobbit.2012.DVDSCR.XVID-Happyviking.mp4&amp;tr=udp%3A%2F%2Ftracker.openbittorrent.com%3A80&amp;tr=udp%3A%2F%2Fopen.demonii.com%3A1337&amp;tr=udp%3A%2F%2Ftracker.coppersurfer.tk%3A6969&amp;tr=udp%3A%2F%2Fexodus.desync.com%3A6969","seeders":1,"leechers":0,"uploader":"Happyviking","files":-1,"time":1357119822,"description":" &lt;a href=&quot;\nhttp://www.imdb.com/title/tt0903624/&quot; rel=&quot;nofollow&quot; target=&quot;_NEW&quot;&gt;\nhttp://www.imdb.com/title/tt0903624/&lt;/a&gt;\n\n\nGeneral\nComplete name                    : The.Hobbit.2012.DVDSCR.XVID-Happyviking.mp4\nFormat                           : MPEG-4\nFormat profile                   : Base Media\nCodec ID                         : isom\nFile size                        : 2.05 GiB\nDuration                         : 2h 49mn\nOverall bit rate                 : 1 731 Kbps\nWriting application              : Lavf52.94.0\n\nVideo\nID                               : 1\nFormat                           : AVC\nFormat/Info                      : Advanced Video Codec\nFormat profile                   : &lt;a class=&quot;__cf_email__&quot; href=&quot;/cdn-cgi/l/email-protection&quot; data-cfemail=&quot;6f220e06012f235c415f&quot;&gt;[email&amp;#160;protected]&lt;/a&gt;&lt;script cf-hash='f9e31' type=&quot;text/javascript&quot;&gt;\n/* &lt;![CDATA[ */!function(){try{var t=&quot;currentScript&quot;in document?document.currentScript:function(){for(var t=document.getElementsByTagName(&quot;script&quot;),e=t.length;e--;)if(t[e].getAttribute(&quot;cf-hash&quot;))return t[e]}();if(t&amp;&amp;t.previousSibling){var e,r,n,i,c=t.previousSibling,a=c.getAttribute(&quot;data-cfemail&quot;);if(a){for(e=&quot;&quot;,r=parseInt(a.substr(0,2),16),n=2;a.length-n;n+=2)i=parseInt(a.substr(n,2),16)^r,e+=String.fromCharCode(i);e=document.createTextNode(e),c.parentNode.replaceChild(e,c)}}}catch(u){}}();/* ]]&gt; */&lt;/script&gt;\nFormat settings, CABAC           : Yes\nFormat settings, ReFrames        : 2 frames\nCodec ID                         : avc1\nCodec ID/Info                    : Advanced Video Coding\nDuration                         : 2h 49mn\nBit rate mode                    : Variable\nBit rate                         : 1 554 Kbps\nWidth                            : 640 pixels\nHeight                           : 272 pixels\nDisplay aspect ratio             : 2.35:1\nFrame rate mode                  : Constant\nFrame rate                       : 29.970 fps\nColor space                      : YUV\nChroma subsampling               : 4:2:0\nBit depth                        : 8 bits\nScan type                        : Progressive\nBits/(Pixel*Frame)               : 0.298\nStream size                      : 1.85 GiB (90%)\nWriting library                  : x264 core 112 r1834 a51816a\n\n\nAudio\nID                               : 2\nFormat                           : AAC\nFormat/Info                      : Advanced Audio Codec\nFormat profile                   : LC\nCodec ID                         : 40\nDuration                         : 2h 49mn\nBit rate mode                    : Variable\nBit rate                         : 165 Kbps\nChannel(s)                       : 2 channels\nChannel positions                : Front: L R\nSampling rate                    : 48.0 KHz\nCompression mode                 : Lossy\nStream size                      : 200 MiB (10%)\n\nScreen:\n &lt;a href=&quot;\nhttp://www.shotpix.com/images/34528070191250481905.png&quot; rel=&quot;nofollow&quot; target=&quot;_NEW&quot;&gt;\nhttp://www.shotpix.com/images/34528070191250481905.png&lt;/a&gt; &lt;a href=&quot;\nhttp://www.shotpix.com/images/03169195132641327549.png&quot; rel=&quot;nofollow&quot; target=&quot;_NEW&quot;&gt;\nhttp://www.shotpix.com/images/03169195132641327549.png&lt;/a&gt; &lt;a href=&quot;\nhttp://www.shotpix.com/images/54946884089085644334.png&quot; rel=&quot;nofollow&quot; target=&quot;_NEW&quot;&gt;\nhttp://www.shotpix.com/images/54946884089085644334.png&lt;/a&gt; &lt;a href=&quot;\nhttp://www.shotpix.com/images/75916138720981896309.png&quot; rel=&quot;nofollow&quot; target=&quot;_NEW&quot;&gt;\nhttp://www.shotpix.com/images/75916138720981896309.png&lt;/a&gt;\n","torrent":{"xt":"urn:btih:1362b880543fd912f8fad4d5a8d9ef97bec1117e","amp;dn":"The.Hobbit.2012.DVDSCR.XVID-Happyviking.mp4","amp;tr":["udp%3A%2F%2Ftracker.openbittorrent.com%3A80","udp%3A%2F%2Fopen.demonii.com%3A1337","udp%3A%2F%2Ftracker.coppersurfer.tk%3A6969","udp%3A%2F%2Fexodus.desync.com%3A6969"],"infoHash":"1362b880543fd912f8fad4d5a8d9ef97bec1117e","infoHashBuffer":{"type":"Buffer","data":[19,98,184,128,84,63,217,18,248,250,212,213,168,217,239,151,190,193,17,126]},"announce":[],"urlList":[]}}